<?xml version="1.0" encoding="utf-8"?>
<!-- Generator: Adobe Illustrator 24.1.0, SVG Export Plug-In . SVG Version: 6.00 Build 0)  -->
<svg version="1.1" id="Ebene_1" xmlns="http://www.w3.org/2000/svg" xmlns:xlink="http://www.w3.org/1999/xlink" x="0px" y="0px"
	 viewBox="0 0 283.46 283.46" style="enable-background:new 0 0 283.46 283.46;" xml:space="preserve">
<style type="text/css">
	.st0{fill:url(#SVGID_1_);}
	.st1{fill:none;stroke:#878787;stroke-width:10.8944;stroke-linecap:round;stroke-miterlimit:10;}
	.st2{fill:#FFFFFF;}
	.st3{fill:none;stroke:#FFFFFF;stroke-width:3.1957;stroke-linecap:round;stroke-linejoin:round;stroke-miterlimit:10;}
	.st4{fill:none;stroke:#FFFFFF;stroke-width:4.2;stroke-linecap:round;stroke-miterlimit:10;}
	.st5{fill:none;stroke:#FFFFFF;stroke-width:2.8507;stroke-linecap:round;stroke-linejoin:round;stroke-miterlimit:10;}
	.st6{fill:none;stroke:#FFFFFF;stroke-width:3.07;stroke-linecap:round;stroke-linejoin:round;stroke-miterlimit:10;}
	.st7{fill:none;stroke:#878787;stroke-width:5.4244;stroke-linecap:round;stroke-miterlimit:10;}
</style>
<g>
	<linearGradient id="SVGID_1_" gradientUnits="userSpaceOnUse" x1="30.3166" y1="77.3893" x2="253.5812" y2="206.2912">
		<stop  offset="0" style="stop-color:#95C11F"/>
		<stop  offset="0.1254" style="stop-color:#8DBE20"/>
		<stop  offset="0.3178" style="stop-color:#78B724"/>
		<stop  offset="0.5533" style="stop-color:#55AB29"/>
		<stop  offset="0.8204" style="stop-color:#259A30"/>
		<stop  offset="1" style="stop-color:#008D36"/>
	</linearGradient>
	<circle class="st0" cx="141.95" cy="141.84" r="128.88"/>
	<g>
		<path class="st1" d="M142.68,166.53"/>
		<path class="st2" d="M160.26,145.35c0-1.8-1.42-4.6-3.19-4.6l-6.91-0.01l0.02-9.83c0-1.27-1.57-2.31-3.51-2.32
			s-3.52,1.03-3.52,2.3l-0.02,9.83l-6.97-0.01l0.02-9.83c0-1.27-1.5-2.31-3.37-2.31c-1.86,0-3.37,1.03-3.37,2.3l-0.02,9.83
			l-5.89-0.01c-1.77,0-3.2,2.79-3.2,4.59c0,0.63-2.81,23.05,19.6,23.1C162.33,168.41,160.26,146.11,160.26,145.35z"/>
		<path class="st2" d="M217.92,168.24c-1.18,0-17.35,13.21-17.35,24.65c0,11.44,8.68,16.76,16.56,16.76
			c7.89,0,15.58-4.53,16.76-15.97C235.07,182.24,217.92,168.24,217.92,168.24z M220.8,204.22c6.49-2.37,8.56-11.74,8.56-11.74
			C230.54,203.18,220.8,204.22,220.8,204.22z"/>
		<g>
			<line class="st3" x1="89.44" y1="47.56" x2="92.02" y2="62.46"/>
			<line class="st3" x1="104.53" y1="64.36" x2="111.85" y2="54.52"/>
			<line class="st3" x1="112.63" y1="74.69" x2="125.78" y2="72.42"/>
			<line class="st3" x1="109.57" y1="88.31" x2="119.34" y2="95.19"/>
			<line class="st3" x1="98.21" y1="95.69" x2="100.41" y2="108.39"/>
			<line class="st3" x1="84.88" y1="91.67" x2="78.59" y2="102.24"/>
			<line class="st3" x1="77.66" y1="81.19" x2="64.59" y2="83.9"/>
			<line class="st3" x1="80.79" y1="68.01" x2="71.1" y2="61.57"/>
			<path class="st2" d="M92.67,65.51c-7.09,1.23-11.84,7.96-10.61,15.05c1.23,7.09,7.96,11.84,15.05,10.61
				c7.09-1.23,11.84-7.96,10.61-15.05C106.49,69.03,99.75,64.28,92.67,65.51z M85.98,80.38c-2.19-8.62,5.94-10.9,5.94-10.9
				C86.09,72.52,85.98,80.38,85.98,80.38z"/>
		</g>
		<path class="st4" d="M140.51,165.31c0,0,1.24,36.36,0.88,42.4c-0.36,6.04-0.77,24.17-18.08,20.92c0,0-23.26-2.98-47.58-24.27"/>
		<g>
			<line class="st5" x1="62.86" y1="177.3" x2="62.85" y2="204.7"/>
			<path class="st2" d="M62.82,176.57c0.18,0.38,11.78-14.43-0.58-33.53c0,0-4.99,11.51-2.23,29.3
				C60.01,172.35,62.29,175.45,62.82,176.57z"/>
			<path class="st2" d="M63.98,176.74c-0.41,0.02,8.03,16.28,31.68,12.39c0,0-9.18-9.3-26.71-13.41
				C68.94,175.71,65.21,176.67,63.98,176.74z"/>
			<circle class="st2" cx="62.84" cy="177.5" r="3.99"/>
			<path class="st2" d="M56.83,175.9c-19.5,0.56-26.97,14.26-26.97,14.26c21.79,0.84,32.35-13.22,31.94-13.24
				C60.56,176.85,56.83,175.9,56.83,175.9z M36.43,188.91c0,0,9.96-3.32,20.2-8.99C56.64,179.92,47.78,187.39,36.43,188.91z"/>
		</g>
		<g>
			<path class="st2" d="M203.7,90.72c14.16,10.35,25.8-12.1,25.8-12.1C203.64,73.69,203.7,90.72,203.7,90.72z M204.74,89.76
				c0,0,6.79-8.49,21.84-9.91C226.58,79.84,215.58,81.77,204.74,89.76z"/>
			<line class="st6" x1="204.37" y1="90.85" x2="204.02" y2="110.23"/>
			<path class="st2" d="M178.19,79.56c0,0,11.65,22.46,25.8,12.1C203.99,91.67,204.05,74.64,178.19,79.56z M181.11,80.79
				c15.06,1.43,21.84,9.91,21.84,9.91C192.11,82.71,181.11,80.79,181.11,80.79z"/>
		</g>
		<path class="st4" d="M54.1,134.4c1.44-11.98,5.33-23.2,11.15-33.15"/>
		<path class="st4" d="M193.26,212.72c-11.74,9.24-25.93,15.51-41.44,17.66"/>
		<path class="st4" d="M217.93,107.8c5.33,11.22,8.31,23.77,8.31,37.02c0,3.76-0.24,7.47-0.71,11.11"/>
		<path class="st7" d="M217.93,107.8"/>
		<path class="st4" d="M125.78,59.78c5.73-1.2,10.16-1.35,16.25-1.35c14.39,0,27.95,3.52,39.88,9.74"/>
	</g>
</g>
</svg>
